<svg width="134" height="134" viewBox="0 0 134 134" fill="none" xmlns="http://www.w3.org/2000/svg">
<g filter="url(#filter0_d_2184_15098)">
<rect x="7" y="7" width="120" height="120" rx="8" fill="#F5F7F8"/>
</g>
<path d="M82.625 42H51.375C46.1875 42 42 46.1875 42 51.375V82.625C42 87.8125 46.1875 92 51.375 92H82.625C87.8125 92 92 87.8125 92 82.625V51.375C92 46.1875 87.8125 42 82.625 42ZM51.375 43.5625H82.625C86.9375 43.5625 90.4375 47.0625 90.4375 51.375V71.9688L85.5938 73.8437C84.5 74.1875 83.25 74 82.3125 73.3125L75.1875 67.9688C73.625 66.8125 71.5625 66.625 69.8125 67.4687C68.2812 68.2187 66.4688 67.8125 65.4062 66.5L59.2188 58.8125C57.4375 56.5938 54.1875 56.25 51.9688 58.0312L43.5625 65.1875V51.375C43.5625 47.0625 47.0625 43.5625 51.375 43.5625ZM82.625 90.4375H51.375C47.0625 90.4375 43.5625 86.9375 43.5625 82.625V67.25L52.9688 59.2188C54.5 57.9688 56.7812 58.2188 58.0312 59.7812L64.2188 67.4687C65.75 69.375 68.3438 69.9375 70.5312 68.875C71.75 68.2813 73.1875 68.4062 74.2812 69.2188L81.4062 74.5625C82.3125 75.2188 83.375 75.5938 84.5 75.5938C85.0625 75.5938 85.625 75.5 86.1562 75.3438L90.5 73.6875V82.6562C90.5 86.9688 87 90.4688 82.6875 90.4688L82.625 90.4375Z" fill="#C4CCD2"/>
<path d="M78.126 51.9063C80.3135 51.9063 82.126 53.6875 82.126 55.9063C82.126 58.125 80.3447 59.9063 78.126 59.9063C75.9072 59.9063 74.126 58.125 74.126 55.9063C74.126 53.6875 75.9072 51.9063 78.126 51.9063ZM78.126 50.3438C75.0635 50.3438 72.5635 52.8438 72.5635 55.9063C72.5635 58.9688 75.0635 61.4688 78.126 61.4688C81.1885 61.4688 83.6885 58.9688 83.6885 55.9063C83.6885 52.8438 81.1885 50.3438 78.126 50.3438Z" fill="#C4CCD2"/>
<defs>
<filter id="filter0_d_2184_15098" x="0" y="0" width="134" height="134" filterUnits="userSpaceOnUse" color-interpolation-filters="sRGB">
<feFlood flood-opacity="0" result="BackgroundImageFix"/>
<feColorMatrix in="SourceAlpha" type="matrix" values="0 0 0 0 0 0 0 0 0 0 0 0 0 0 0 0 0 0 127 0" result="hardAlpha"/>
<feOffset/>
<feGaussianBlur stdDeviation="3.5"/>
<feComposite in2="hardAlpha" operator="out"/>
<feColorMatrix type="matrix" values="0 0 0 0 0.172549 0 0 0 0 0.243137 0 0 0 0 0.313726 0 0 0 0.16 0"/>
<feBlend mode="normal" in2="BackgroundImageFix" result="effect1_dropShadow_2184_15098"/>
<feBlend mode="normal" in="SourceGraphic" in2="effect1_dropShadow_2184_15098" result="shape"/>
</filter>
</defs>
</svg>
